<svg xmlns="http://www.w3.org/2000/svg" xmlns:xlink="http://www.w3.org/1999/xlink" width="96" height="96" viewBox="0 0 96 96" version="1.1" id="svg8" >
  <g id="main">
    <g transform="translate(-.192)" id="container">
      <path d="M25.853 54.544c2.72 10.883 9.962 14.458 15.287 18.347l1.286 3.476c5.004 1.722 10.176 2.392 15.832 0l1.286-3.476c5.753-3.29 10.792-6.504 14.44-14.883m-48.131-3.464c.066-2.918 16.312-4.238 24.646-4.203 7.947.033 24.26 1.829 24.315 4.198.056 2.37-16.29 5.324-24.315 5.366-6.152.032-16.531-1.29-21.632-3.146" id="bowl" fill="none" stroke="#C8435D" stroke-width="1.2" stroke-linecap="round"/>
      <path d="M44.032 58.358c12.609-1.157 15.837-3.814 22.418-2.232m-29.367.487c13.987.818 23.303-6.065 32.789-2.069" id="ramen" fill="none" stroke="#C8435D" stroke-width="1.2" stroke-linecap="round"/>
      <g class="chopStick" stroke-linecap="round">
        <path id="path998" d="M28.234 32.313a1.062 1.062 0 00-.375.058l-.68.236c-.484.169-.823.692-.644 1.21l6.919 19.942c.153.457.463.468.63.392.166-.076.459-.212.247-.733l-6.897-19.89c.005-.005.018-.017.054-.03l.682-.236c.073-.026.066.006.053-.032l6.9 19.899c.204.576.56.447.656.411.096-.035.42-.162.23-.738l-6.896-19.88c-.134-.389-.5-.6-.879-.61z" color="#000" fill="#C8435D" stroke-width=".943"/>
        <path id="path971" d="M34.894 50.503l-1.54 2.11m.602-4.839l-1.541 2.11m.598-4.851l-1.541 2.109m.662-4.666l-1.541 2.109m.602-4.839l-1.541 2.109m.62-4.789l-1.542 2.109m.6-4.85l-1.542 2.11m-.025-3.781l-.874 1.165" fill="none" stroke="#C8435D" stroke-width="1.108"/>
      </g>
      <g class="chopStick" stroke-linecap="round">
        <path id="path949" d="M23.508 36.883c-.126.012-.25.046-.365.103l-.647.32c-.46.228-.73.79-.486 1.282l8.747 17.681c.172.346.44.307.642.208.19-.091.345-.303.219-.591L22.854 38.17c.017.035-.01.017.06-.018l.647-.32c.069-.034.068-.002.05-.037l8.763 17.71c.212.416.556.327.686.252.13-.076.367-.301.176-.634l-8.78-17.746c-.183-.369-.571-.532-.948-.494z" color="#000" fill="#C8435D" stroke-width=".943"/>
        <path id="path989" d="M32.547 54.219l-1.256 2.29m-.027-4.875l-1.256 2.29m-.033-4.887l-1.256 2.29m.054-4.712l-1.256 2.29m-.028-4.875l-1.256 2.29m-.004-4.829l-1.256 2.29m-.032-4.886l-1.256 2.29m-.514-3.745l-.716 1.268" fill="none" stroke="#C8435D" stroke-width="1.108"/>
      </g>
      <path id="smoke" d="m 37.793293,55.044823 c -0.52982,-6.253708 11.101446,-7.02842 12.559281,-13.831424 c 0.918936,-4.288227 -6.493319,-7.49375 -5.71675,-11.810031 c 0.607311,-3.375522 6.672801,-6.832851 5.82965,-11.055355 c 4.367334,4.115921 -0.417809,4.830338 1.233539,9.252015 c 1.651347,4.421677 11.129748,7.096598 11.606547,13.836919 c 0.302469,4.27589 -6.599127,10.677813 -6.599127,10.677813" fill="none" stroke="#0cf" stroke-width="1.2" stroke-linecap="round"/>
    </g>
  </g>
</svg>
