<svg xmlns="http://www.w3.org/2000/svg" xmlns:svgjs="http://svgjs.com/svgjs" xmlns:xlink="http://www.w3.org/1999/xlink" width="288" height="288"><svg xmlns="http://www.w3.org/2000/svg" width="288" height="288" viewBox="0 0 16 16"><g fill="#363d3d" class="color363d3d svgShape" transform="translate(-164.15 -245.55) scale(.52421)" style="--darkreader-inline-fill:#2b2f31"><path fill="#4286c5" d="m328.397 476.935a6.744 6.744 0 0 0 -6.744 6.744 6.744 6.744 0 0 0 6.744 6.744 6.744 6.744 0 0 0 6.744-6.744 6.744 6.744 0 0 0 -6.744-6.744zm0 1.382a5.362 5.362 0 0 1 5.362 5.362 5.362 5.362 0 0 1 -5.362 5.362 5.362 5.362 0 0 1 -5.362-5.362 5.362 5.362 0 0 1 5.362-5.362z" class="color000 svgShape" style="--darkreader-inline-fill:#2f6698"/><circle cx="328.397" cy="483.679" r="1.579" fill="#4286c5" class="color000 svgShape" style="--darkreader-inline-fill:#5496ca"/><path fill="#4286c5" d="m314.897 468.418v1.028l8.615 8.597a7.468 7.468 0 0 1 1.23-.865l-8.776-8.76zm25.931 0-8.772 8.756a7.468 7.468 0 0 1 1.23.866l8.611-8.594v-1.028zm-25.93 2.84v1.027l7.281 7.267a7.468 7.468 0 0 1 .942-1.152l-7.155-7.143h-1.069zm25.93 0-7.155 7.142a7.468 7.468 0 0 1 .942 1.152l7.282-7.267v-1.028h-1.069zm-12.446 3.183-.726.727v1.088a7.468 7.468 0 0 1 .741-.045 7.468 7.468 0 0 1 .742.037v-1.05zm-11.912 7.276-.727.727.756.756 4.454.004a7.468 7.468 0 0 1 .246-1.482zm23.867 0-4.735.005a7.468 7.468 0 0 1 .246 1.482l4.46-.004.756-.756zm-23.867 2.413-.727.727.756.756 4.69.004a7.468 7.468 0 0 1 -.243-1.482zm23.867 0-4.495.005a7.468 7.468 0 0 1 -.242 1.482l4.708-.004.756-.756-.727-.726zm-18.158 3.676-7.282 7.267v1.028h1.069l7.156-7.144a7.468 7.468 0 0 1 -.943-1.151zm12.436 0a7.468 7.468 0 0 1 -.942 1.151l7.155 7.144h1.07v-1.028zm-1.333 1.509a7.468 7.468 0 0 1 -1.23.865l8.776 8.76h1.07v-1.028zm-9.773.003-8.612 8.594v1.028h1.069l8.772-8.756a7.468 7.468 0 0 1 -1.23-.866zm5.63 1.784a7.468 7.468 0 0 1 -.742.045 7.468 7.468 0 0 1 -.74-.037l-.001 1.03.726.727.756-.756v-1.01z" class="color000 svgShape" style="--darkreader-inline-fill:#2f6698"/></g></svg></svg>